<?xml version="1.0" encoding="UTF-8" standalone="no"?>
<!-- Created with Inkscape (http://www.inkscape.org/) -->

<svg
   xmlns:dc="http://purl.org/dc/elements/1.1/"
   xmlns:cc="http://creativecommons.org/ns#"
   xmlns:rdf="http://www.w3.org/1999/02/22-rdf-syntax-ns#"
   xmlns:svg="http://www.w3.org/2000/svg"
   xmlns="http://www.w3.org/2000/svg"
   xmlns:sodipodi="http://sodipodi.sourceforge.net/DTD/sodipodi-0.dtd"
   xmlns:inkscape="http://www.inkscape.org/namespaces/inkscape"
   width="150"
   height="185"
   id="svg2"
   version="1.1"
   inkscape:version="0.48.4 r9939"
   sodipodi:docname="chope.svg">
  <defs
     id="defs4" />
  <sodipodi:namedview
     id="base"
     pagecolor="#ffffff"
     bordercolor="#666666"
     borderopacity="1.0"
     inkscape:pageopacity="0.0"
     inkscape:pageshadow="2"
     inkscape:zoom="1"
     inkscape:cx="221.17218"
     inkscape:cy="121.97213"
     inkscape:document-units="px"
     inkscape:current-layer="layer1"
     showgrid="false"
     inkscape:window-width="1152"
     inkscape:window-height="837"
     inkscape:window-x="1280"
     inkscape:window-y="0"
     inkscape:window-maximized="1" />
  <metadata
     id="metadata7">
    <rdf:RDF>
      <cc:Work
         rdf:about="">
        <dc:format>image/svg+xml</dc:format>
        <dc:type
           rdf:resource="http://purl.org/dc/dcmitype/StillImage" />
        <dc:title />
      </cc:Work>
    </rdf:RDF>
  </metadata>
  <g
     inkscape:label="Calque 1"
     inkscape:groupmode="layer"
     id="layer1"
     transform="translate(0,-867.36218)">
    <rect
       style="fill:#ffff82;fill-opacity:1;stroke:none"
       id="rect4002"
       width="105"
       height="97"
       x="35.5"
       y="940.36218"
       ry="0" />
    <path
       style="fill:#ffffff;fill-opacity:1;stroke:none"
       d="m 64.69447,894.93904 -29.25587,35.35534 9.873857,10.25305 35.838433,5.3033 39.86112,-4.5962 10.23956,-10.96015 -21.21051,-35.35534 z"
       id="path3765"
       inkscape:connector-curvature="0" />
    <path
       sodipodi:type="arc"
       style="fill:#ffffff;fill-opacity:1;stroke:#aeaeae;stroke-width:7.5059247;stroke-linecap:butt;stroke-miterlimit:4;stroke-opacity:1;stroke-dasharray:none"
       id="path2993"
       sodipodi:cx="297.5"
       sodipodi:cy="249.75"
       sodipodi:rx="44.5"
       sodipodi:ry="8.75"
       d="m 342,249.75 c 0,4.83249 -19.92333,8.75 -44.5,8.75 -24.57667,0 -44.5,-3.91751 -44.5,-8.75 0,-0.19426 0.0329,-0.38847 0.0986,-0.5823"
       transform="matrix(0.88286471,0,0,0.68623317,-177.26074,767.14987)"
       sodipodi:start="0"
       sodipodi:end="3.20819"
       sodipodi:open="true" />
    <rect
       style="fill:none;stroke:#202020;stroke-width:20;stroke-miterlimit:4;stroke-opacity:1;stroke-dasharray:none"
       id="rect3773"
       width="96.497749"
       height="135.78348"
       x="37.858269"
       y="906.14905"
       ry="16.78915"
       rx="15.013575" />
    <rect
       style="fill:#ffffff;fill-opacity:1;stroke:none"
       id="rect3767"
       width="73.892662"
       height="18.384777"
       x="46.398758"
       y="902.71722"
       ry="9.1923885" />
    <rect
       style="fill:#ffffff;fill-opacity:1;stroke:#1f1f1f;stroke-width:20;stroke-miterlimit:4;stroke-opacity:1;stroke-dasharray:none"
       id="rect3779"
       width="27.329144"
       height="62.686287"
       x="10.20409"
       y="947.80219"
       ry="12.804821" />
    <path
       sodipodi:type="arc"
       style="fill:#ffffff;fill-opacity:1;stroke:#588888;stroke-width:15;stroke-linecap:round;stroke-miterlimit:4;stroke-opacity:1;stroke-dasharray:none"
       id="path4004"
       sodipodi:cx="113.75"
       sodipodi:cy="232.75"
       sodipodi:rx="25.25"
       sodipodi:ry="23.75"
       d="m 100.11024,252.73667 c -11.73549,-7.08552 -15.142259,-21.77781 -7.609229,-32.81614 7.475392,-10.95388 22.931769,-14.20724 34.657769,-7.29501"
       transform="translate(-56.646447,679.71573)"
       sodipodi:start="2.1414573"
       sodipodi:end="5.2722172"
       sodipodi:open="true" />
    <path
       sodipodi:type="arc"
       style="fill:#ffffff;fill-opacity:1;stroke:#588888;stroke-width:15;stroke-linecap:round;stroke-miterlimit:4;stroke-opacity:1;stroke-dasharray:none"
       id="path4004-4"
       sodipodi:cx="113.75"
       sodipodi:cy="232.75"
       sodipodi:rx="25.25"
       sodipodi:ry="23.75"
       d="m 94.837724,217.01399 c 9.239646,-9.82447 25.197176,-10.74352 35.642136,-2.05276 10.44496,8.69075 11.42206,23.70031 2.18242,33.52478 -2.34025,2.48838 -5.20951,4.48725 -8.42237,5.86746"
       transform="translate(2.992944,677.94458)"
       sodipodi:start="3.8658359"
       sodipodi:end="7.4255528"
       sodipodi:open="true" />
    <path
       sodipodi:type="arc"
       style="fill:#ffffff;fill-opacity:1;stroke:#588888;stroke-width:15;stroke-linecap:butt;stroke-miterlimit:4;stroke-opacity:1;stroke-dasharray:none"
       id="path4004-8"
       sodipodi:cx="113.75"
       sodipodi:cy="232.75"
       sodipodi:rx="25.25"
       sodipodi:ry="23.75"
       d="m 90.536902,242.09529 c -5.487237,-12.05864 0.457336,-26.01813 13.277578,-31.17939 12.82024,-5.16126 27.66138,0.43017 33.14862,12.48881 2.01815,4.43506 2.55254,9.34304 1.53204,14.07081"
       transform="translate(-25.507056,665.94458)"
       sodipodi:start="2.7371722"
       sodipodi:end="6.4834914"
       sodipodi:open="true" />
    <path
       transform="matrix(3.1980044,0,0,2.3100228,-270.90264,279.59178)"
       sodipodi:type="arc"
       style="fill:#ffffff;fill-opacity:1;stroke:#000000;stroke-width:0.60000002;stroke-linecap:butt;stroke-miterlimit:4;stroke-opacity:0.58823529;stroke-dasharray:none"
       id="path4034-6"
       sodipodi:cx="116"
       sodipodi:cy="297.25"
       sodipodi:rx="2.5"
       sodipodi:ry="3.25"
       d="m 118.5,297.25 c 0,1.79493 -1.11929,3.25 -2.5,3.25 -1.38071,0 -2.5,-1.45507 -2.5,-3.25 0,-1.79493 1.11929,-3.25 2.5,-3.25 1.38071,0 2.5,1.45507 2.5,3.25 z" />
    <path
       transform="matrix(3.1980044,0,0,2.3100228,-299.46746,301.62285)"
       sodipodi:type="arc"
       style="fill:#ffffff;fill-opacity:1;stroke:#000000;stroke-width:0.60000002;stroke-linecap:butt;stroke-miterlimit:4;stroke-opacity:0.58823529;stroke-dasharray:none"
       id="path4034-6-4"
       sodipodi:cx="116"
       sodipodi:cy="297.25"
       sodipodi:rx="2.5"
       sodipodi:ry="3.25"
       d="m 118.5,297.25 c 0,1.79493 -1.11929,3.25 -2.5,3.25 -1.38071,0 -2.5,-1.45507 -2.5,-3.25 0,-1.79493 1.11929,-3.25 2.5,-3.25 1.38071,0 2.5,1.45507 2.5,3.25 z" />
    <path
       transform="matrix(3.1980044,0,0,2.3100228,-269.23865,320.89151)"
       sodipodi:type="arc"
       style="fill:#ffffff;fill-opacity:1;stroke:#000000;stroke-width:0.60000002;stroke-linecap:butt;stroke-miterlimit:4;stroke-opacity:0.58823529;stroke-dasharray:none"
       id="path4034-6-2"
       sodipodi:cx="116"
       sodipodi:cy="297.25"
       sodipodi:rx="2.5"
       sodipodi:ry="3.25"
       d="m 118.5,297.25 c 0,1.79493 -1.11929,3.25 -2.5,3.25 -1.38071,0 -2.5,-1.45507 -2.5,-3.25 0,-1.79493 1.11929,-3.25 2.5,-3.25 1.38071,0 2.5,1.45507 2.5,3.25 z" />
  </g>
  <g
     inkscape:groupmode="layer"
     id="layer2"
     inkscape:label="mousse"
     transform="translate(0,-215)" />
</svg>
