<?xml version="1.0" encoding="UTF-8" standalone="no"?>
<svg
   xmlns:dc="http://purl.org/dc/elements/1.1/"
   xmlns:cc="http://creativecommons.org/ns#"
   xmlns:rdf="http://www.w3.org/1999/02/22-rdf-syntax-ns#"
   xmlns:svg="http://www.w3.org/2000/svg"
   xmlns="http://www.w3.org/2000/svg"
   xmlns:sodipodi="http://sodipodi.sourceforge.net/DTD/sodipodi-0.dtd"
   xmlns:inkscape="http://www.inkscape.org/namespaces/inkscape"
   version="1.1"
   x="0px"
   y="0px"
   viewBox="0 0 500 500"
   enable-background="new 0 0 512 512"
   xml:space="preserve"
   id="svg4522"
   inkscape:version="0.48.4 r9939"
   width="100%"
   height="100%"
   sodipodi:docname="aroma.svg"><metadata
     id="metadata4530"><rdf:RDF><cc:Work
         rdf:about=""><dc:format>image/svg+xml</dc:format><dc:type
           rdf:resource="http://purl.org/dc/dcmitype/StillImage" /></cc:Work></rdf:RDF></metadata><defs
     id="defs4528" /><sodipodi:namedview
     pagecolor="#ffffff"
     bordercolor="#666666"
     borderopacity="1"
     objecttolerance="10"
     gridtolerance="10"
     guidetolerance="10"
     inkscape:pageopacity="0"
     inkscape:pageshadow="2"
     inkscape:window-width="1152"
     inkscape:window-height="837"
     id="namedview4526"
     showgrid="false"
     inkscape:zoom="0.65186406"
     inkscape:cx="280.78174"
     inkscape:cy="229.9474"
     inkscape:window-x="1280"
     inkscape:window-y="0"
     inkscape:window-maximized="1"
     inkscape:current-layer="svg4522" /><path
     d="m 436.10768,251.54156 c 0,0 -133.33582,12.99876 -185.69769,136.61981 V 126.35491 c 0,-22.89647 18.60927,-41.50574 41.50573,-41.50574 19.46068,0 35.8203,13.440518 40.28945,31.53214 -15.08203,1.39922 -25.29889,6.24882 -31.71507,15.00613 -6.81124,9.28955 -7.32792,20.37338 -7.84557,31.07676 -0.66945,13.69837 -1.48972,22.39535 -9.85197,28.36977 l -12.69518,9.0463 13.24397,8.20949 c 1.52085,0.95746 15.21922,9.24382 27.54951,9.24382 0.94287,0 1.88574,-0.0302 2.7819,-0.12163 5.27579,6.14277 14.39799,15.14333 25.02546,18.57911 l 3.2081,1.01877 0.34932,-0.10606 0.36488,0.10606 3.2081,-1.01877 c 10.62747,-3.43578 19.7341,-12.43634 25.02546,-18.57911 0.89713,0.0915 1.82443,0.12163 2.7819,0.12163 12.33029,0 26.02866,-8.28636 27.54951,-9.24382 l 13.24202,-8.21046 -12.69517,-9.0463 c -8.37685,-5.9754 -9.19809,-14.6714 -9.85197,-28.35518 -0.51668,-10.71894 -1.04893,-21.8018 -7.86017,-31.09136 -6.26439,-8.54421 -16.11636,-13.37921 -30.60484,-14.8845 -4.72894,-29.706722 -30.45304,-52.421227 -61.49866,-52.421227 -15.949,0 -30.49878,5.989997 -41.50574,15.873103 V 64.080733 c 0,-34.390912 -27.88326,-62.2741735 -62.27417,-62.2741735 -31.04562,0 -56.7707,22.7145045 -61.51424,52.4222045 -14.47388,1.505284 -24.34141,6.340289 -30.604834,14.8845 -6.811238,9.289556 -7.343488,20.373385 -7.860169,31.091356 -0.63831,13.68378 -1.475119,22.37978 -9.851968,28.35518 l -12.679606,9.0463 13.226451,8.20949 c 1.520852,0.95746 15.233819,9.24382 27.549506,9.24382 0.95747,0 1.88574,-0.0302 2.79748,-0.1372 5.27579,6.15736 14.38241,15.15792 25.02546,18.59371 l 3.19252,1.01876 0.36489,-0.10606 0.36489,0.10606 3.19252,-1.01876 c 10.64305,-3.43579 19.76524,-12.43635 25.02546,-18.59371 0.91271,0.10606 1.84001,0.1372 2.79747,0.1372 l 0,0 c 12.33029,0 26.02866,-8.28636 27.54951,-9.24382 l 13.22743,-8.21047 -12.67961,-9.04629 c -8.37685,-5.9754 -9.19809,-14.67141 -9.85197,-28.36978 -0.51668,-10.703374 -1.03433,-21.787203 -7.84557,-31.076759 -6.43078,-8.757305 -16.63304,-13.606906 -31.72966,-15.006129 4.47011,-18.092594 20.84433,-31.532139 40.30501,-31.532139 22.88187,0 41.50574,18.609275 41.50574,41.505737 v 140.42145 c -11.00891,-9.88213 -25.57426,-15.87213 -41.50769,-15.87213 -31.04562,0 -56.77069,22.7145 -61.51423,52.4222 -14.47388,1.50529 -24.34142,6.34029 -30.604837,14.90007 -6.811238,9.27399 -7.343488,20.35782 -7.860169,31.07676 -0.63831,13.68378 -1.475119,22.37978 -9.851968,28.35518 l -12.679606,9.0463 13.227424,8.20852 c 1.520852,0.95746 15.233819,9.24382 27.549506,9.24382 0.95747,0 1.88574,-0.0302 2.79748,-0.12163 5.27579,6.14276 14.38241,15.14333 25.02546,18.57911 l 3.19252,1.01877 0.36489,-0.10607 0.36489,0.10607 3.19252,-1.01877 c 10.64305,-3.43578 19.76524,-12.43635 25.02546,-18.57911 0.91271,0.0915 1.84001,0.12163 2.79747,0.12163 l 0,0 c 12.33029,0 26.02866,-8.28636 27.54951,-9.24382 l 13.22743,-8.21047 -12.67961,-9.04629 c -8.37685,-5.9754 -9.19809,-14.67141 -9.85197,-28.35518 -0.51668,-10.71895 -1.03433,-21.8018 -7.84557,-31.07676 -6.43078,-8.77288 -16.63304,-13.62248 -31.72966,-15.0217 4.47011,-18.09259 20.84433,-31.53214 40.30501,-31.53214 22.88187,0 41.50574,18.60927 41.50574,41.50574 V 499.998 h 20.76843 v -3.64888 c 46.85645,-11.5071 158.87699,-58.31879 185.69575,-244.80756 z M 367.2811,143.65642 c 3.11662,4.25703 3.48151,11.79804 3.86197,19.79541 0.48651,10.09522 1.04893,21.95456 7.29775,32.29305 -1.7787,0.51668 -3.43578,0.83583 -4.80484,0.83583 -0.62371,0 -0.94287,-0.0759 -1.04893,-0.10606 l -8.34669,-5.41299 -5.73214,8.27079 c -2.69141,3.87657 -9.67001,11.91967 -16.23799,15.46249 v -0.0156 l -0.0302,0.0156 c -6.2644,-3.37546 -13.0445,-10.9009 -16.22243,-15.46249 l -5.73214,-8.27079 -8.34668,5.41299 c -0.10606,0.0302 -0.44079,0.10606 -1.04893,0.10606 -1.36809,0 -3.04074,-0.31915 -4.80485,-0.83583 6.23326,-10.33849 6.81124,-22.19783 7.29776,-32.29305 0.36489,-7.99737 0.72977,-15.53838 3.86197,-19.79541 3.35989,-4.59174 11.64624,-6.93286 24.63041,-6.93286 l 0.39505,0.0156 0.36489,-0.0156 c 12.98416,0 21.28609,2.34209 24.64598,6.93286 z M 162.80677,81.38225 c 3.11662,4.257023 3.48151,11.798036 3.86197,19.7954 0.48652,10.1108 1.04893,21.95457 7.29775,32.29305 -1.73297,0.51668 -3.40562,0.83584 -4.80484,0.83584 l 0,0 c -0.60814,0 -0.94287,-0.0759 -1.0645,-0.10606 l -8.30095,-5.38185 -5.76231,8.23965 c -3.19252,4.56158 -9.95803,12.08703 -16.22242,15.46248 l -0.0302,-0.0156 -0.0156,0.0156 c -6.27899,-3.37545 -13.0299,-10.9009 -16.22242,-15.46248 l -5.74674,-8.27079 -8.33209,5.41299 c -0.12163,0.0302 -0.44079,0.10606 -1.0645,0.10606 -1.36809,0 -3.02516,-0.31916 -4.80484,-0.83584 6.26439,-10.33848 6.81123,-22.19782 7.29775,-32.29305 0.39505,-7.997364 0.74535,-15.538377 3.86197,-19.7954 3.37546,-4.591748 11.66084,-6.932867 24.63041,-6.932867 l 0.39505,0.01557 0.38046,-0.01557 c 12.98514,0 21.27052,2.342092 24.64598,6.932867 z m 0,186.82252 c 3.11662,4.25702 3.48151,11.79804 3.86197,19.7954 0.48652,10.1108 1.04893,21.95457 7.29775,32.29305 -1.73297,0.51668 -3.40562,0.83584 -4.80484,0.83584 l 0,0 c -0.60814,0 -0.94287,-0.0759 -1.0645,-0.10606 l -8.30095,-5.38185 -5.76231,8.23965 c -3.19252,4.56158 -9.95803,12.1026 -16.22242,15.46248 l -0.0302,-0.0156 -0.0156,0.0156 c -6.27899,-3.35988 -13.0299,-10.9009 -16.22242,-15.46248 l -5.74674,-8.27079 -8.33209,5.41299 c -0.12163,0.0302 -0.44079,0.10606 -1.0645,0.10606 -1.36809,0 -3.02516,-0.31916 -4.80484,-0.83584 6.26439,-10.33848 6.81123,-22.19782 7.29775,-32.29305 0.39505,-7.99736 0.74535,-15.53838 3.86197,-19.7954 3.37546,-4.59175 11.66084,-6.93287 24.63041,-6.93287 l 0.39505,0.0156 0.38046,-0.0156 c 12.98514,0 21.27052,2.3421 24.64598,6.93287 z m 147.35431,178.23258 c -22.01489,15.43134 -43.02659,23.52017 -56.80085,27.60983 -0.66945,0.19753 -1.33793,0.39506 -2.00737,0.57799 2.88893,-37.47738 12.30012,-70.56053 28.09635,-98.62575 15.26496,-27.12332 36.58024,-49.83783 63.43014,-67.58013 24.32585,-16.07063 48.80349,-25.04006 65.07165,-29.75343 0.82124,-0.2131 1.62691,-0.45636 2.41701,-0.66945 -8.11899,38.34338 -20.7986,72.03468 -37.84226,100.40543 -16.70894,27.85212 -37.70507,50.74956 -62.36467,68.03551 z"
     id="path4524"
     inkscape:connector-curvature="0" /></svg>