<?xml version="1.0" encoding="UTF-8" standalone="no"?>
<!-- Created with Inkscape (http://www.inkscape.org/) -->

<svg
   xmlns:dc="http://purl.org/dc/elements/1.1/"
   xmlns:cc="http://creativecommons.org/ns#"
   xmlns:rdf="http://www.w3.org/1999/02/22-rdf-syntax-ns#"
   xmlns:svg="http://www.w3.org/2000/svg"
   xmlns="http://www.w3.org/2000/svg"
   xmlns:sodipodi="http://sodipodi.sourceforge.net/DTD/sodipodi-0.dtd"
   xmlns:inkscape="http://www.inkscape.org/namespaces/inkscape"
   width="600"
   height="600"
   id="svg2"
   version="1.1"
   inkscape:version="0.48.4 r9939"
   sodipodi:docname="chope.svg">
  <defs
     id="defs4" />
  <sodipodi:namedview
     id="base"
     pagecolor="#ffffff"
     bordercolor="#666666"
     borderopacity="1.0"
     inkscape:pageopacity="0.0"
     inkscape:pageshadow="2"
     inkscape:zoom="0.70710678"
     inkscape:cx="305.30506"
     inkscape:cy="254.69358"
     inkscape:document-units="px"
     inkscape:current-layer="layer1"
     showgrid="false"
     inkscape:window-width="1280"
     inkscape:window-height="748"
     inkscape:window-x="0"
     inkscape:window-y="64"
     inkscape:window-maximized="1" />
  <metadata
     id="metadata7">
    <rdf:RDF>
      <cc:Work
         rdf:about="">
        <dc:format>image/svg+xml</dc:format>
        <dc:type
           rdf:resource="http://purl.org/dc/dcmitype/StillImage" />
        <dc:title />
      </cc:Work>
    </rdf:RDF>
  </metadata>
  <g
     inkscape:label="Calque 1"
     inkscape:groupmode="layer"
     id="layer1"
     transform="translate(0,-452.36218)">
    <path
       style="font-size:medium;font-style:normal;font-variant:normal;font-weight:normal;font-stretch:normal;text-indent:0;text-align:start;text-decoration:none;line-height:normal;letter-spacing:normal;word-spacing:normal;text-transform:none;direction:ltr;block-progression:tb;writing-mode:lr-tb;text-anchor:start;baseline-shift:baseline;color:#000000;fill:#010000;fill-opacity:1;stroke:none;stroke-width:40;marker:none;visibility:visible;display:inline;overflow:visible;enable-background:accumulate;font-family:Sans;-inkscape-font-specification:Sans"
       d="m 165.375,638.21875 c -2.85518,-0.14018 -6.17727,0.26692 -9.625,1.84375 -6.89545,3.15366 -10.25407,9.51506 -11.34375,13.09375 -1.0789,3.54329 -1.01992,5.67688 -1,7.53125 l -0.0312,0 c 0.0361,5.3442 -0.28755,29.51758 -0.40625,44.03125 -6.93246,-2.74324 -14.44088,-4.3125 -22.28125,-4.3125 l -5.5625,0 c -33.547891,0 -61.4375,27.37571 -61.4375,60.90625 l 0,118.40625 c 0,33.53054 27.889609,60.90625 61.4375,60.90625 l 5.5625,0 c 6.91687,0 13.61959,-1.21537 19.90625,-3.34375 -0.0301,12.1409 0.0476,21.38626 0.0312,23.15625 -0.15894,17.14991 6.86316,31.61876 17.5,47.125 10.63684,15.5062 26.62526,32.0625 50.625,32.0625 l 213.09375,0 c 39.82567,0 67.83427,-37.5981 68.125,-78.875 l 0,-0.0625 0,-0.0625 c 0,0 -0.0191,-64.69547 0.0625,-132.59375 0.0815,-67.78619 0.31325,-139.98186 0.625,-151.1875 0.26445,-2.37813 0.89109,-4.35927 -0.96875,-10.4375 -1.01098,-3.30403 -4.02767,-9.79734 -11.5,-13.09375 -7.47233,-3.29641 -14.22452,-1.17642 -17.28125,0.25 -6.11346,2.85285 -6.6585,4.53635 -8.125,6 -1.4665,1.46365 -2.68726,2.79166 -4.0625,4.21875 -5.50095,5.70835 -12.98692,12.78477 -24.34375,17.3125 -4.17392,1.66405 -9.94783,2.11896 -18.78125,4.5 -8.83342,2.38104 -22.35449,10.66302 -27.34375,23.8125 -2.15766,5.68663 -2.05563,8.036 -2.59375,12.0625 -0.53812,4.0265 -1.02317,8.66947 -1.5625,13.75 -1.07866,10.16105 -2.35583,22.11109 -4.0625,32.59375 -0.0829,0.50917 -0.19319,0.87121 -0.28125,1.375 -3.39552,-6.98627 -6.90451,-14.9663 -11.625,-24.28125 -11.15182,-22.0059 -29.2593,-48.68306 -63.03125,-58.625 l -1.65625,-0.5 -1.75,-0.1875 c -32.05267,-3.61181 -59.72916,-2.5236 -79.40625,-12.375 -7.94305,-3.97677 -16.71269,-12.43788 -23.4375,-19.65625 -3.3624,-3.60918 -5.26876,-6.38666 -10.53125,-10.40625 -1.31562,-1.0049 -2.88739,-2.21616 -6.09375,-3.46875 -1.60318,-0.6263 -3.98857,-1.32857 -6.84375,-1.46875 z m 285.125,35.75 c 0.0291,-0.36018 0.25745,0.0667 0.21875,0.59375 l -0.0312,0.28125 c -0.0151,-0.15299 -0.19366,-0.79881 -0.1875,-0.875 z m 31,13.78125 c -0.0552,0.0565 -0.6296,0.34921 -0.75,0.4375 0.0588,-0.0597 0.23171,-0.26305 0.28125,-0.3125 0.29968,-0.2991 0.73744,-0.39994 0.46875,-0.125 z m -298.53125,14.4375 c 3.49101,2.4431 7.28615,4.74973 11.40625,6.8125 31.61962,15.83047 64.04248,13.43457 90.9375,16.1875 18.34121,5.98633 27.9474,19.70234 37.125,37.8125 4.71758,9.30921 8.89062,19.35538 13.90625,29.03125 4.5578,8.79265 9.88808,17.7921 19.28125,24.8125 l -0.0312,0.0312 c 0.2492,0.22947 0.63688,0.42847 0.90625,0.65625 0.66209,0.47126 1.17046,1.01871 1.875,1.46875 l 0.0625,-0.0937 c 6.05221,4.308 15.23373,7.67982 24.03125,4.9375 10.19914,-3.17923 14.52615,-10.16425 17.40625,-15.5625 5.7602,-10.7965 7.68335,-21.91334 9.65625,-34.03125 1.9729,-12.11791 3.27203,-24.71687 4.34375,-34.8125 0.53586,-5.04782 1.01325,-9.48182 1.4375,-12.65625 0.1376,-1.02957 0.3263,-1.73848 0.5,-2.53125 0.0989,-0.0228 0.0738,-6.1e-4 0.1875,-0.0312 3.46238,-0.93328 12.38364,-1.66147 23.1875,-5.96875 4.04949,-1.61445 7.728,-3.4516 11.1875,-5.375 -0.16907,30.09273 -0.28922,69.74228 -0.34375,115.125 -0.0815,67.85269 -0.0625,132.31658 -0.0625,132.46875 0,1.8e-4 0,0.15625 0,0.15625 -0.23368,24.01204 -14.65213,39 -28.125,39 l -213.09375,0 c -2.66477,0 -10.82465,-4.77404 -17.625,-14.6875 -6.80035,-9.91346 -10.5238,-24.92911 -10.53125,-24.125 0.0664,-7.16492 -0.32739,-37.15293 0.8125,-79.03125 l -0.0312,0 c -0.005,-0.40038 0.0443,-0.78514 0.0312,-1.1875 l -39.96875,0.0937 c -0.0163,0.6001 -0.0155,0.93495 -0.0312,1.53125 0.13604,9.81946 -8.18975,18.40625 -20.71875,18.40625 l -5.5625,0 c -12.35647,0 -21.4375,-9.12419 -21.4375,-20.90625 l 0,-118.40625 c 0,-11.78206 9.08103,-20.90625 21.4375,-20.90625 l 5.5625,0 c 12.35647,0 21.56123,8.85305 21.71875,21.90625 l 40,0.0937 c 0.004,-0.26129 -0.004,-0.30159 0,-0.5625 0.43156,-27.67291 0.41427,-40.63115 0.5625,-59.65625 z"
       id="rect3773"
       inkscape:connector-curvature="0" />
    <path
       style="font-size:medium;font-style:normal;font-variant:normal;font-weight:normal;font-stretch:normal;text-indent:0;text-align:start;text-decoration:none;line-height:normal;letter-spacing:normal;word-spacing:normal;text-transform:none;direction:ltr;block-progression:tb;writing-mode:lr-tb;text-anchor:start;baseline-shift:baseline;color:#000000;fill:#000000;fill-opacity:1;stroke:none;stroke-width:40;marker:none;visibility:visible;display:inline;overflow:visible;enable-background:accumulate;font-family:Sans;-inkscape-font-specification:Sans"
       d="m 324.125,460.375 c -12.97221,0.16354 -26.14882,2.29238 -38.84375,6.46875 -27.07784,8.90804 -50.26969,25.6984 -61.28125,48.78125 -41.07919,-0.99759 -68.80252,21.28571 -81.8125,41.3125 -24.34717,37.4786 -15.92406,82.1977 8.28125,114.96875 A 20.002,20.002 0 1 0 182.625,648.125 c -17.35905,-23.50205 -21.56593,-46.76064 -6.875,-69.375 8.93878,-13.75983 22.23499,-28.37524 58.75,-22.03125 l 19.6875,3.4375 3.4375,-19.6875 c 2.15057,-12.31699 16.40985,-27.84418 40.15625,-35.65625 33.92848,-11.16176 73.86338,3.01069 85.8125,24.46875 1.39425,2.50378 2.72616,5.75692 4.21875,9.5625 0.67422,3.49171 0.45233,7.97728 -1.03125,13.59375 a 20.003174,20.003174 0 1 0 38.6875,10.1875 c 0.78417,-2.96868 1.38231,-6.11064 1.875,-9.34375 12.47912,0.72107 21.54285,3.90546 24.59375,5.78125 12.45295,7.6565 23.76801,22.10864 28.625,37.28125 4.85699,15.17261 3.94032,29.78179 -4.9375,42.375 1.18351,-1.67881 -3.41574,3.42753 -8.3125,7.71875 -4.89676,4.29122 -10.61096,9.10755 -15.5625,14 a 20.002,20.002 0 1 0 28.09375,28.4375 c 3.11886,-3.08165 8.58921,-7.76638 13.8125,-12.34375 5.22329,-4.57737 9.66041,-7.69464 14.65625,-14.78125 16.89173,-23.96097 18.20704,-53.02985 10.34375,-77.59375 -7.86329,-24.5639 -24.21143,-45.92565 -45.78125,-59.1875 -12.7964,-7.86766 -30.67182,-12.59874 -52.78125,-11.90625 -0.54876,-1.09735 -0.93291,-2.1194 -1.5625,-3.25 -18.2303,-32.73772 -55.48961,-49.92812 -94.40625,-49.4375 z"
       id="path4004"
       inkscape:connector-curvature="0" />
    <path
       style="fill:none;stroke:#000000;stroke-width:40;stroke-linecap:round;stroke-miterlimit:4;stroke-opacity:1;stroke-dasharray:none"
       d="m 247.67743,570.00207 c -9.58882,-10.23524 -10.62841,-22.63673 -9.13427,-33.22158"
       id="path4004-8"
       inkscape:connector-curvature="0"
       sodipodi:nodetypes="cc" />
    <path
       style="font-size:medium;font-style:normal;font-variant:normal;font-weight:normal;font-stretch:normal;text-indent:0;text-align:start;text-decoration:none;line-height:normal;letter-spacing:normal;word-spacing:normal;text-transform:none;direction:ltr;block-progression:tb;writing-mode:lr-tb;text-anchor:start;baseline-shift:baseline;color:#000000;fill:#000000;fill-opacity:1;stroke:none;stroke-width:40.0466423;marker:none;visibility:visible;display:inline;overflow:visible;enable-background:accumulate;font-family:Sans;-inkscape-font-specification:Sans"
       d="M 142.375,757.96875 141.46875,883.625 181.5,883.90625 182.40625,758.25 142.375,757.96875 z"
       id="path3026"
       inkscape:connector-curvature="0" />
  </g>
  <g
     inkscape:groupmode="layer"
     id="layer2"
     inkscape:label="mousse"
     transform="translate(0,200)" />
</svg>
