<?xml version="1.0" encoding="UTF-8" standalone="no"?>
<!-- Created with Inkscape (http://www.inkscape.org/) -->

<svg
   xmlns:dc="http://purl.org/dc/elements/1.1/"
   xmlns:cc="http://creativecommons.org/ns#"
   xmlns:rdf="http://www.w3.org/1999/02/22-rdf-syntax-ns#"
   xmlns:svg="http://www.w3.org/2000/svg"
   xmlns="http://www.w3.org/2000/svg"
   xmlns:sodipodi="http://sodipodi.sourceforge.net/DTD/sodipodi-0.dtd"
   xmlns:inkscape="http://www.inkscape.org/namespaces/inkscape"
   width="600"
   height="600"
   id="svg2"
   version="1.1"
   inkscape:version="0.48.4 r9939"
   sodipodi:docname="chope.svg">
  <defs
     id="defs4" />
  <sodipodi:namedview
     id="base"
     pagecolor="#ffffff"
     bordercolor="#666666"
     borderopacity="1.0"
     inkscape:pageopacity="0.0"
     inkscape:pageshadow="2"
     inkscape:zoom="0.70710678"
     inkscape:cx="61.335295"
     inkscape:cy="296.59086"
     inkscape:document-units="px"
     inkscape:current-layer="layer1"
     showgrid="false"
     inkscape:window-width="1152"
     inkscape:window-height="837"
     inkscape:window-x="1280"
     inkscape:window-y="0"
     inkscape:window-maximized="1" />
  <metadata
     id="metadata7">
    <rdf:RDF>
      <cc:Work
         rdf:about="">
        <dc:format>image/svg+xml</dc:format>
        <dc:type
           rdf:resource="http://purl.org/dc/dcmitype/StillImage" />
        <dc:title />
      </cc:Work>
    </rdf:RDF>
  </metadata>
  <g
     inkscape:label="Calque 1"
     inkscape:groupmode="layer"
     id="layer1"
     transform="translate(0,-452.36218)">
    <path
       inkscape:connector-curvature="0"
       id="rect3773"
       d="m 469.96364,960.6131 c -0.23026,32.6921 -21.46637,59.0123 -48.13088,59.0123 l -213.09305,0 c -26.66451,0 -48.28237,-42.6665 -48.13088,-59.0123 0.15149,-16.3457 3.01939,-264.7591 2.78091,-300.06239 -0.11513,-10.84296 15.67021,18.41129 39.94215,30.56329 26.00801,13.021 56.47946,11.0047 86.1271,14.3455 53.14241,15.6443 55.81976,81.4532 79.67061,96.6884 22.09934,20.3494 23.7095,-74.8025 27.82636,-85.6527 5.46883,-14.4134 20.74109,-11.7022 34.81492,-19.571 23.62888,-13.2111 39.98554,-35.87697 38.88565,-20.8953 -0.73296,25.8444 -0.69289,284.5842 -0.69289,284.5842 z"
       style="fill:none;stroke:#010000;stroke-width:40;stroke-miterlimit:4;stroke-opacity:1;stroke-dasharray:none"
       sodipodi:nodetypes="sssccsccsscs" />
    <path
       inkscape:connector-curvature="0"
       id="rect3779"
       d="m 111.13221,720.4057 5.56344,0 c 22.95218,0 41.42993,18.2396 41.42993,40.8959 l 0,118.4152 c 0,22.6563 -18.47775,40.8959 -41.42993,40.8959 l -5.56344,0 c -22.95218,0 -41.42993,-18.2396 -41.42993,-40.8959 l 0,-118.4152 c 0,-22.6563 18.47775,-40.8959 41.42993,-40.8959 z"
       style="fill:none;fill-opacity:1;stroke:#000000;stroke-width:40;stroke-miterlimit:4;stroke-opacity:1;stroke-dasharray:none" />
    <path
       style="fill:none;stroke:#000000;stroke-width:40;stroke-linecap:round;stroke-miterlimit:4;stroke-opacity:1;stroke-dasharray:none"
       d="m 415.02452,533.10875 c 23.70215,-6.2249 36.68709,-0.0605 47.38207,8.90881 30.60186,25.66423 46.33672,67.65512 20.56716,104.20929 -6.38419,9.05599 -24.64868,30.4187 -35.00033,34.9219"
       id="path4004-4"
       inkscape:connector-curvature="0"
       sodipodi:nodetypes="cssc" />
    <path
       style="fill:none;stroke:#000000;stroke-width:40;stroke-linecap:round;stroke-miterlimit:4;stroke-opacity:1;stroke-dasharray:none"
       d="m 178.84862,668.11083 c -33.01318,-28.9742 -42.24383,-65.84611 -19.88409,-100.26538 11.85181,-18.24398 35.34577,-38.39323 78.18738,-30.73272"
       id="path4004"
       inkscape:connector-curvature="0"
       sodipodi:nodetypes="csc" />
    <path
       style="fill:none;stroke:#000000;stroke-width:40;stroke-linecap:round;stroke-miterlimit:4;stroke-opacity:1;stroke-dasharray:none"
       d="m 247.67743,570.00207 c -18.12813,-32.55415 1.5109,-70.23994 43.86502,-84.17356 42.3541,-13.9336 91.38464,1.16132 109.51278,33.71547 6.66734,11.97312 8.4328,25.22297 5.06139,37.98632"
       id="path4004-8"
       inkscape:connector-curvature="0" />
  </g>
  <g
     inkscape:groupmode="layer"
     id="layer2"
     inkscape:label="mousse"
     transform="translate(0,200)" />
</svg>
