<?xml version="1.0" encoding="UTF-8" standalone="no"?>
<svg
   xmlns:dc="http://purl.org/dc/elements/1.1/"
   xmlns:cc="http://creativecommons.org/ns#"
   xmlns:rdf="http://www.w3.org/1999/02/22-rdf-syntax-ns#"
   xmlns:svg="http://www.w3.org/2000/svg"
   xmlns="http://www.w3.org/2000/svg"
   xmlns:sodipodi="http://sodipodi.sourceforge.net/DTD/sodipodi-0.dtd"
   xmlns:inkscape="http://www.inkscape.org/namespaces/inkscape"
   version="1.1"
   x="0px"
   y="0px"
   viewBox="0 0 500 500"
   enable-background="new 0 0 90 90"
   xml:space="preserve"
   id="svg3150"
   inkscape:version="0.48.4 r9939"
   width="100%"
   height="100%"
   sodipodi:docname="fermentable.svg"><metadata
     id="metadata3158"><rdf:RDF><cc:Work
         rdf:about=""><dc:format>image/svg+xml</dc:format><dc:type
           rdf:resource="http://purl.org/dc/dcmitype/StillImage" /><dc:title></dc:title></cc:Work></rdf:RDF></metadata><defs
     id="defs3156" /><sodipodi:namedview
     pagecolor="#ffffff"
     bordercolor="#666666"
     borderopacity="1"
     objecttolerance="10"
     gridtolerance="10"
     guidetolerance="10"
     inkscape:pageopacity="0"
     inkscape:pageshadow="2"
     inkscape:window-width="1152"
     inkscape:window-height="837"
     id="namedview3154"
     showgrid="false"
     inkscape:zoom="0.32777778"
     inkscape:cx="-786.96691"
     inkscape:cy="393.14066"
     inkscape:window-x="1280"
     inkscape:window-y="0"
     inkscape:window-maximized="1"
     inkscape:current-layer="svg3150"
     inkscape:object-paths="true" /><path
     style="font-size:medium;font-style:normal;font-variant:normal;font-weight:normal;font-stretch:normal;text-indent:0;text-align:start;text-decoration:none;line-height:normal;letter-spacing:normal;word-spacing:normal;text-transform:none;direction:ltr;block-progression:tb;writing-mode:lr-tb;text-anchor:start;baseline-shift:baseline;color:#000000;fill:#000000;fill-opacity:1;stroke:none;stroke-width:22;marker:none;visibility:visible;display:inline;overflow:visible;enable-background:accumulate;font-family:Sans;-inkscape-font-specification:Sans"
     d="m 117.5625,258.21875 a 11.0011,11.0011 0 0 0 -7.90625,3.3125 c -20.509727,20.89977 -33.680444,41.22531 -40.375,60.0625 A 11.0011,11.0011 0 1 0 90,328.96875 c 4.47917,-12.60352 13.54725,-27.46637 27.5,-43.3125 11.49724,13.13616 20.44441,26.04362 25.53125,37.96875 6.22293,14.58849 7.14762,27.10845 2.28125,39.125 a 11.011291,11.011291 0 1 0 20.40625,8.28125 C 173.08098,352.85165 171.06128,333.31206 163.25,315 155.43872,296.68794 142.06627,278.97563 125.4375,261.625 a 11.0011,11.0011 0 0 0 -7.875,-3.40625 z"
     id="path3855-3"
     inkscape:connector-curvature="0" /><path
     style="font-size:medium;font-style:normal;font-variant:normal;font-weight:normal;font-stretch:normal;text-indent:0;text-align:start;text-decoration:none;line-height:normal;letter-spacing:normal;word-spacing:normal;text-transform:none;direction:ltr;block-progression:tb;writing-mode:lr-tb;text-anchor:start;baseline-shift:baseline;color:#000000;fill:#000000;fill-opacity:1;stroke:none;stroke-width:22;marker:none;visibility:visible;display:inline;overflow:visible;enable-background:accumulate;font-family:Sans;-inkscape-font-specification:Sans"
     d="m 70.46875,304.1875 a 11.0011,11.0011 0 0 0 -7.9375,3.28125 c -30.945151,31.5337 -46.324741,60.82876 -45.4375,88.3125 0.887241,27.48374 19.044044,50.18521 47.1875,66.09375 A 11.006235,11.006235 0 1 0 75.125,442.71875 C 50.962194,429.06033 39.659406,413.55263 39.0625,395.0625 c -0.537174,-16.63983 8.521334,-38.15739 31.21875,-63.59375 11.558921,13.18578 20.519652,26.12523 25.625,38.09375 6.22293,14.58849 7.17886,27.10846 2.3125,39.125 a 11.0011,11.0011 0 1 0 20.375,8.28125 c 7.36223,-18.1796 5.37378,-37.71919 -2.4375,-56.03125 -7.81128,-18.31206 -21.183724,-36.02438 -37.8125,-53.375 a 11.0011,11.0011 0 0 0 -7.875,-3.375 z"
     id="path3855"
     inkscape:connector-curvature="0" /><path
     style="font-size:medium;font-style:normal;font-variant:normal;font-weight:normal;font-stretch:normal;text-indent:0;text-align:start;text-decoration:none;line-height:normal;letter-spacing:normal;word-spacing:normal;text-transform:none;direction:ltr;block-progression:tb;writing-mode:lr-tb;text-anchor:start;baseline-shift:baseline;color:#000000;fill:#000000;fill-opacity:1;stroke:none;stroke-width:22;marker:none;visibility:visible;display:inline;overflow:visible;enable-background:accumulate;font-family:Sans;-inkscape-font-specification:Sans"
     d="m 125.3125,398.4375 c -24.70564,1.91376 -48.093464,17.65773 -65.1875,48.46875 a 11.0011,11.0011 0 0 0 0.15625,10.96875 c 16.59469,27.92297 40.55511,45.81507 68.875,46.625 28.31989,0.80993 58.52324,-14.71968 89.5,-46.46875 A 11.0011,11.0011 0 0 0 218.21875,442.25 c -26.03907,-23.89213 -53.70675,-41.5087 -82.25,-43.8125 -3.56791,-0.28797 -7.12687,-0.27339 -10.65625,0 z m 1.375,21.8125 c 2.46101,-0.13284 4.95896,-0.0801 7.5,0.125 17.85746,1.44132 39.08188,12.65422 60.34375,30.375 -24.98823,23.10122 -47.04808,32.28751 -64.75,31.78125 -18.0574,-0.51643 -33.702998,-10.49283 -47.0625,-30.46875 13.735823,-22.28289 28.04584,-30.95304 43.96875,-31.8125 z"
     id="path3811-8-7"
     inkscape:connector-curvature="0" /><path
     style="font-size:medium;font-style:normal;font-variant:normal;font-weight:normal;font-stretch:normal;text-indent:0;text-align:start;text-decoration:none;line-height:normal;letter-spacing:normal;word-spacing:normal;text-transform:none;direction:ltr;block-progression:tb;writing-mode:lr-tb;text-anchor:start;baseline-shift:baseline;color:#000000;fill:#000000;fill-opacity:1;stroke:none;stroke-width:22;marker:none;visibility:visible;display:inline;overflow:visible;enable-background:accumulate;font-family:Sans;-inkscape-font-specification:Sans"
     d="m 172.40625,352.46875 c -24.70564,1.91376 -48.09346,17.68897 -65.1875,48.5 A 11.0011,11.0011 0 1 0 126.4375,411.625 c 16.87272,-30.41211 34.54669,-38.82825 54.875,-37.1875 17.82448,1.43866 38.96514,12.58605 60.1875,30.25 -15.38313,14.0403 -30.14224,23.19658 -42.96875,27.8125 A 11.0011,11.0011 0 1 0 206,453.1875 c 19.13552,-6.88636 39.44809,-20.28569 59.75,-41.09375 a 11.0011,11.0011 0 0 0 -0.4375,-15.78125 c -26.03908,-23.89212 -53.70675,-41.5087 -82.25,-43.8125 -3.56791,-0.28798 -7.12687,-0.30464 -10.65625,-0.0312 z"
     id="path3811-8-7-2"
     inkscape:connector-curvature="0" /><path
     style="font-size:medium;font-style:normal;font-variant:normal;font-weight:normal;font-stretch:normal;text-indent:0;text-align:start;text-decoration:none;line-height:normal;letter-spacing:normal;word-spacing:normal;text-transform:none;direction:ltr;block-progression:tb;writing-mode:lr-tb;text-anchor:start;baseline-shift:baseline;color:#000000;fill:#000000;fill-opacity:1;stroke:none;stroke-width:22;marker:none;visibility:visible;display:inline;overflow:visible;enable-background:accumulate;font-family:Sans;-inkscape-font-specification:Sans"
     d="m 167.25,209.375 a 11.0011,11.0011 0 0 0 -7.90625,3.28125 c -20.50972,20.89977 -33.68046,41.22528 -40.375,60.0625 a 11.0011,11.0011 0 1 0 20.71875,7.375 c 4.47916,-12.60352 13.54725,-27.46637 27.5,-43.3125 11.50264,13.14051 20.44279,26.03982 25.53125,37.96875 6.22293,14.58848 7.14761,27.10845 2.28125,39.125 a 11.011291,11.011291 0 1 0 20.40625,8.28125 c 7.36223,-18.1796 5.34253,-37.71919 -2.46875,-56.03125 -7.81128,-18.31206 -21.18373,-36.02437 -37.8125,-53.375 a 11.0011,11.0011 0 0 0 -7.875,-3.375 z"
     id="path3855-3-9"
     inkscape:connector-curvature="0" /><path
     style="font-size:medium;font-style:normal;font-variant:normal;font-weight:normal;font-stretch:normal;text-indent:0;text-align:start;text-decoration:none;line-height:normal;letter-spacing:normal;word-spacing:normal;text-transform:none;direction:ltr;block-progression:tb;writing-mode:lr-tb;text-anchor:start;baseline-shift:baseline;color:#000000;fill:#000000;fill-opacity:1;stroke:none;stroke-width:22;marker:none;visibility:visible;display:inline;overflow:visible;enable-background:accumulate;font-family:Sans;-inkscape-font-specification:Sans"
     d="m 222.09375,303.625 c -24.70564,1.91376 -48.09347,17.65773 -65.1875,48.46875 a 11.001343,11.001343 0 1 0 19.25,10.65625 C 193.02896,332.3379 210.67169,323.92175 231,325.5625 c 17.82019,1.43832 38.97028,12.59342 60.1875,30.25 -15.38311,14.0403 -30.11099,23.19658 -42.9375,27.8125 a 11.006623,11.006623 0 1 0 7.4375,20.71875 c 19.13552,-6.88636 39.44811,-20.31694 59.75,-41.125 A 11.0011,11.0011 0 0 0 315,347.4375 c -26.03908,-23.89213 -53.70675,-41.5087 -82.25,-43.8125 -3.56791,-0.28798 -7.12687,-0.27339 -10.65625,0 z"
     id="path3811-8-7-2-5"
     inkscape:connector-curvature="0" /><path
     style="font-size:medium;font-style:normal;font-variant:normal;font-weight:normal;font-stretch:normal;text-indent:0;text-align:start;text-decoration:none;line-height:normal;letter-spacing:normal;word-spacing:normal;text-transform:none;direction:ltr;block-progression:tb;writing-mode:lr-tb;text-anchor:start;baseline-shift:baseline;color:#000000;fill:#000000;fill-opacity:1;stroke:none;stroke-width:22;marker:none;visibility:visible;display:inline;overflow:visible;enable-background:accumulate;font-family:Sans;-inkscape-font-specification:Sans"
     d="m 212.46875,161.59375 a 11.0011,11.0011 0 0 0 -7.90625,3.28125 c -20.50971,20.89978 -33.68046,41.25655 -40.375,60.09375 a 11.0011,11.0011 0 1 0 20.71875,7.34375 c 4.47916,-12.60351 13.54725,-27.46636 27.5,-43.3125 11.50264,13.14051 20.44279,26.03982 25.53125,37.96875 6.22293,14.58849 7.14761,27.13971 2.28125,39.15625 a 11.005425,11.005425 0 1 0 20.40625,8.25 c 7.36223,-18.1796 5.34253,-37.71919 -2.46875,-56.03125 -7.81128,-18.31206 -21.18373,-36.02438 -37.8125,-53.375 a 11.0011,11.0011 0 0 0 -7.875,-3.375 z"
     id="path3855-3-4"
     inkscape:connector-curvature="0" /><path
     style="font-size:medium;font-style:normal;font-variant:normal;font-weight:normal;font-stretch:normal;text-indent:0;text-align:start;text-decoration:none;line-height:normal;letter-spacing:normal;word-spacing:normal;text-transform:none;direction:ltr;block-progression:tb;writing-mode:lr-tb;text-anchor:start;baseline-shift:baseline;color:#000000;fill:#000000;fill-opacity:1;stroke:none;stroke-width:22;marker:none;visibility:visible;display:inline;overflow:visible;enable-background:accumulate;font-family:Sans;-inkscape-font-specification:Sans"
     d="m 267.3125,255.84375 c -24.70564,1.91376 -48.09347,17.65773 -65.1875,48.46875 A 11.0011,11.0011 0 1 0 221.34375,315 c 16.87271,-30.4121 34.54669,-38.8595 54.875,-37.21875 17.82013,1.43831 38.97035,12.59353 60.1875,30.25 -15.38526,14.04342 -30.1406,23.22724 -42.96875,27.84375 a 11.0011,11.0011 0 1 0 7.46875,20.6875 c 19.13552,-6.88636 39.4481,-20.31695 59.75,-41.125 a 11.0011,11.0011 0 0 0 -0.4375,-15.78125 c -26.03907,-23.89213 -53.70675,-41.47745 -82.25,-43.78125 -3.56791,-0.28798 -7.12687,-0.30464 -10.65625,-0.0312 z"
     id="path3811-8-7-2-2"
     inkscape:connector-curvature="0" /><path
     style="font-size:medium;font-style:normal;font-variant:normal;font-weight:normal;font-stretch:normal;text-indent:0;text-align:start;text-decoration:none;line-height:normal;letter-spacing:normal;word-spacing:normal;text-transform:none;direction:ltr;block-progression:tb;writing-mode:lr-tb;text-anchor:start;baseline-shift:baseline;color:#000000;fill:#000000;fill-opacity:1;stroke:none;stroke-width:22;marker:none;visibility:visible;display:inline;overflow:visible;enable-background:accumulate;font-family:Sans;-inkscape-font-specification:Sans"
     d="m 340.90625,147.84375 c -20.78185,0.39175 -40.54057,4.04701 -57.78125,9.75 -22.98758,7.60399 -41.61456,18.46683 -52.46875,32.46875 a 11.004371,11.004371 0 1 0 17.40625,13.46875 c 6.36183,-8.20676 21.81853,-18.39707 41.96875,-25.0625 17.52157,-5.7959 38.51518,-9.21009 60.1875,-8.53125 0.86761,45.40882 -11.33625,85.4833 -32.0625,101.28125 a 11.003473,11.003473 0 1 0 13.34375,17.5 c 32.69309,-24.91929 43.70118,-76.30026 40.46875,-129.84375 a 11.0011,11.0011 0 0 0 -10,-10.28125 c -7.09856,-0.6374 -14.13522,-0.88058 -21.0625,-0.75 z"
     id="path3948"
     inkscape:connector-curvature="0" /><path
     style="font-size:medium;font-style:normal;font-variant:normal;font-weight:normal;font-stretch:normal;text-indent:0;text-align:start;text-decoration:none;line-height:normal;letter-spacing:normal;word-spacing:normal;text-transform:none;direction:ltr;block-progression:tb;writing-mode:lr-tb;text-anchor:start;baseline-shift:baseline;opacity:0.98000004;color:#000000;fill:#000000;fill-opacity:1;stroke:none;stroke-width:22;marker:none;visibility:visible;display:inline;overflow:visible;enable-background:accumulate;font-family:Sans;-inkscape-font-specification:Sans"
     d="m 70.5,439.5625 a 11.0011,11.0011 0 0 0 -9.5625,5.875 c -8.167274,14.9862 -13.65133,23.48175 -19.59375,27.75 -5.94242,4.26825 -14.041743,6.33543 -31.6875,5.8125 A 11.0011,11.0011 0 1 0 9,500.96875 c 19.669588,0.5829 33.946716,-1.83235 45.1875,-9.90625 11.240784,-8.0739 17.720631,-19.78718 26.0625,-35.09375 A 11.0011,11.0011 0 0 0 70.5,439.5625 z"
     id="path3968"
     inkscape:connector-curvature="0" /><path
     style="font-size:medium;font-style:normal;font-variant:normal;font-weight:normal;font-stretch:normal;text-indent:0;text-align:start;text-decoration:none;line-height:normal;letter-spacing:normal;word-spacing:normal;text-transform:none;direction:ltr;block-progression:tb;writing-mode:lr-tb;text-anchor:start;baseline-shift:baseline;color:#000000;fill:#000000;fill-opacity:1;stroke:none;stroke-width:22;marker:none;visibility:visible;display:inline;overflow:visible;enable-background:accumulate;font-family:Sans;-inkscape-font-specification:Sans"
     d="m 467.21875,36.75 a 11.0011,11.0011 0 0 0 -7.5,3.46875 L 355.4375,148.125 a 11.016999,11.016999 0 1 0 15.84375,15.3125 L 475.53125,55.5 a 11.0011,11.0011 0 0 0 -8.3125,-18.75 z"
     id="path3970"
     inkscape:connector-curvature="0" /><path
     style="font-size:medium;font-style:normal;font-variant:normal;font-weight:normal;font-stretch:normal;text-indent:0;text-align:start;text-decoration:none;line-height:normal;letter-spacing:normal;word-spacing:normal;text-transform:none;direction:ltr;block-progression:tb;writing-mode:lr-tb;text-anchor:start;baseline-shift:baseline;color:#000000;fill:#000000;fill-opacity:1;stroke:none;stroke-width:22;marker:none;visibility:visible;display:inline;overflow:visible;enable-background:accumulate;font-family:Sans;-inkscape-font-specification:Sans"
     d="m 377.21875,17.875 a 11.0011,11.0011 0 0 0 -7.5,3.4375 L 224.40625,171.71875 A 11.0011,11.0011 0 1 0 240.21875,187 L 385.53125,36.59375 A 11.0011,11.0011 0 0 0 377.21875,17.875 z"
     id="path3970-4"
     inkscape:connector-curvature="0" /><path
     style="font-size:medium;font-style:normal;font-variant:normal;font-weight:normal;font-stretch:normal;text-indent:0;text-align:start;text-decoration:none;line-height:normal;letter-spacing:normal;word-spacing:normal;text-transform:none;direction:ltr;block-progression:tb;writing-mode:lr-tb;text-anchor:start;baseline-shift:baseline;color:#000000;fill:#000000;fill-opacity:1;stroke:none;stroke-width:22;marker:none;visibility:visible;display:inline;overflow:visible;enable-background:accumulate;font-family:Sans;-inkscape-font-specification:Sans"
     d="m 487.625,121 a 11.0011,11.0011 0 0 0 -7.5,3.4375 L 334.8125,274.84375 A 11.0011,11.0011 0 1 0 350.625,290.125 L 495.9375,139.71875 A 11.0011,11.0011 0 0 0 487.625,121 z"
     id="path3970-4-8"
     inkscape:connector-curvature="0" /></svg>