<?xml version="1.0" encoding="UTF-8" standalone="no"?>
<svg
   xmlns:dc="http://purl.org/dc/elements/1.1/"
   xmlns:cc="http://creativecommons.org/ns#"
   xmlns:rdf="http://www.w3.org/1999/02/22-rdf-syntax-ns#"
   xmlns:svg="http://www.w3.org/2000/svg"
   xmlns="http://www.w3.org/2000/svg"
   xmlns:sodipodi="http://sodipodi.sourceforge.net/DTD/sodipodi-0.dtd"
   xmlns:inkscape="http://www.inkscape.org/namespaces/inkscape"
   version="1.1"
   x="0px"
   y="0px"
   viewBox="0 0 480 500"
   enable-background="new 0 0 90 90"
   xml:space="preserve"
   id="svg3150"
   inkscape:version="0.48.4 r9939"
   width="100%"
   height="100%"
   sodipodi:docname="barley.svg"><metadata
     id="metadata3158"><rdf:RDF><cc:Work
         rdf:about=""><dc:format>image/svg+xml</dc:format><dc:type
           rdf:resource="http://purl.org/dc/dcmitype/StillImage" /></cc:Work></rdf:RDF></metadata><defs
     id="defs3156" /><sodipodi:namedview
     pagecolor="#ffffff"
     bordercolor="#666666"
     borderopacity="1"
     objecttolerance="10"
     gridtolerance="10"
     guidetolerance="10"
     inkscape:pageopacity="0"
     inkscape:pageshadow="2"
     inkscape:window-width="1152"
     inkscape:window-height="837"
     id="namedview3154"
     showgrid="false"
     inkscape:zoom="0.92709556"
     inkscape:cx="222.95428"
     inkscape:cy="193.11859"
     inkscape:window-x="1280"
     inkscape:window-y="0"
     inkscape:window-maximized="1"
     inkscape:current-layer="svg3150" /><path
     d="m 479.1294,87.503925 c -1.56448,-1.564483 -4.10677,-1.564483 -5.67125,0 l -94.69724,94.720235 c -1.40343,-0.89152 -3.10595,-1.89233 -5.02704,-2.99667 0.62119,-0.56943 1.33441,-1.00081 1.94984,-1.59324 10.9974,-11.02616 17.46815,-24.83617 21.29308,-38.37585 l 77.39589,-77.372882 c 1.56449,-1.564483 1.56449,-4.106768 0,-5.677003 -1.56448,-1.570235 -4.10677,-1.564483 -5.67125,0 l -68.50364,68.480635 c 3.21524,-19.9184 1.54147,-36.374225 1.38617,-37.622359 -0.0403,-0.402625 -0.21281,-0.730476 -0.31059,-1.081334 l 54.49807,-54.509576 c 1.56448,-1.564483 1.56448,-4.106767 0,-5.677002 -1.56449,-1.570235 -4.10677,-1.564483 -5.67125,0 l -54.49807,54.509576 c -0.37962,-0.109284 -0.70172,-0.270335 -1.09284,-0.327852 -0.0173,0 -17.01375,-1.863575 -37.73165,1.512716 L 425.38481,12.87464 c 1.56449,-1.564483 1.56449,-4.1067681 0,-5.6712509 -1.56448,-1.5644829 -4.11252,-1.5644829 -5.67701,0 L 342.20264,84.720066 c -13.53969,3.836434 -27.3497,10.272671 -38.25506,21.160784 -0.60394,0.62119 -1.06984,1.24239 -1.61625,1.84056 -1.06984,-1.84056 -2.06489,-3.54309 -2.95066,-4.91776 L 394.07214,8.100666 c 1.56449,-1.5644829 1.56449,-4.1067675 0,-5.6712505 -1.56448,-1.57023468 -4.11252,-1.57023468 -5.67699,0 L 294.50316,96.338652 c -2.28346,-1.863575 -5.42967,-2.433001 -8.21928,-1.213625 -1.73129,0.753483 -38.26657,17.105783 -53.58929,48.291913 -9.21435,5.24562 -32.42852,20.2405 -44.28292,43.53518 -0.52342,0.16105 -1.05258,0.27033 -1.54723,0.54067 -1.47821,0.83975 -30.69148,17.51416 -44.00108,45.18595 -1.9326,-0.35086 -3.97448,-0.0806 -5.72302,1.02956 -1.39768,0.89153 -28.95444,18.58974 -40.642048,46.23853 -2.737843,-1.85783 -6.315447,-1.9441 -9.064796,0 -1.32866,0.94904 -27.73506,20.05068 -37.599356,48.07909 -1.161858,-1.02957 -1.91534,-1.65076 -2.116653,-1.81181 -2.933405,-2.31797 -7.080436,-2.31797 -10.013841,0 -1.506965,1.21362 -36.90914244,29.88622 -36.920646,66.69759 0,26.5617 17.732723,41.58533 29.311047,48.64276 -1.68527,1.91534 -4.377101,4.866 -8.846231,9.59396 -18.0375668,19.07289 -19.0441274,39.693 -19.0786381,40.56152 -0.178305,4.41161 3.2382495,8.08124 7.6498611,8.29406 0.1265393,0 0.247327,0 0.373865,0 4.239059,0 7.787904,-3.34753 8.012224,-7.61535 0.03451,-0.6212 0.989305,-15.70235 14.695786,-30.21408 3.353285,-3.54309 6.045115,-6.40747 8.253798,-8.86348 7.494563,11.5093 22.32264,27.45322 47.509664,27.48198 36.799864,0 65.472464,-35.43093 66.674584,-36.91489 2.32946,-2.95067 2.32946,-7.1092 -0.006,-10.02535 -0.15529,-0.18981 -0.77073,-0.94904 -1.78305,-2.1109 28.0284,-9.86429 47.11854,-36.24194 48.06759,-37.58786 1.95561,-2.75509 1.85207,-6.34995 0.0115,-9.08205 27.62577,-11.67035 45.35849,-39.23861 46.24427,-40.64204 1.11009,-1.76004 1.38042,-3.77892 1.02956,-5.72877 27.67755,-13.2981 44.3462,-42.51137 45.18595,-43.99532 0.27034,-0.48315 0.37387,-1.02382 0.54067,-1.54148 23.29469,-11.86016 38.30683,-35.10884 43.54669,-44.29443 31.17462,-15.32273 47.49816,-51.858 48.2574,-53.58928 1.21362,-2.78386 0.6557,-5.91858 -1.19062,-8.21929 L 479.1234,93.180927 c 1.57598,-1.570234 1.57598,-4.112519 0.006,-5.677002 z M 315.29583,117.2291 c 1.59324,-1.59324 3.40505,-2.86438 5.15359,-4.21605 4.04925,-3.19224 8.33433,-5.9761 12.92999,-8.11001 18.35967,-8.541381 39.38816,-9.565197 50.92622,-9.375388 0.54067,0 1.24238,0 1.72553,0 0.0287,0.511908 0.0173,1.190618 0.0287,1.731284 0.21857,11.405764 -0.75348,32.480274 -9.36389,50.937724 -2.14541,4.59567 -4.92927,8.86923 -8.12151,12.91849 -1.37467,1.75429 -2.64581,3.56609 -4.23905,5.15934 -2.00162,2.00161 -4.16429,3.64663 -6.36147,5.24561 -10.8536,-4.54389 -23.99641,-8.4321 -37.87544,-8.4321 -0.58092,0 -1.12159,0.10929 -1.70252,0.10929 0.35085,-14.45997 -3.5546,-28.3505 -8.24805,-39.58947 1.54148,-2.16267 3.10595,-4.32533 5.14784,-6.37872 z m -28.58057,-4.34834 c 1.50121,2.48477 3.35328,5.8093 5.21686,9.5652 3.59486,7.24148 7.27025,16.40406 9.16257,26.32013 -0.47739,6.16015 -0.046,11.91767 0.84552,16.78367 0.069,0.35087 0.0978,0.73048 0.16105,1.05258 -0.25883,2.78386 -0.66146,5.53896 -1.39194,8.27105 -1.08132,4.05501 -2.74359,7.46006 -4.61867,10.59477 -0.74773,1.27114 -1.50122,2.51353 -2.34097,3.61787 -3.73866,4.99829 -8.23079,8.7542 -12.82071,11.53806 -3.31302,2.03038 -6.60879,3.51434 -9.66873,4.6762 -0.20131,-5.45844 -1.01231,-10.75583 -2.22594,-15.8634 -4.64168,-19.45825 -15.00063,-35.56323 -19.97591,-42.42509 10.00233,-17.13455 28.18945,-28.91993 37.65687,-34.13104 z m -60.47417,54.29101 c 4.40011,-3.43382 8.51838,-6.24068 11.6416,-8.16178 1.33441,2.00162 2.95066,4.62444 4.61292,7.48882 5.1996,9.02453 11.0204,21.75322 12.45259,35.37342 0.39112,3.67538 0.32785,7.37953 -0.0403,11.10668 -0.17255,1.8118 -0.27033,3.65238 -0.6442,5.43542 -0.31635,1.40344 -0.85126,2.56529 -1.27114,3.83644 -1.89233,5.91857 -4.78548,10.75581 -8.28256,14.64401 -1.23088,1.38043 -2.49051,2.67458 -3.82493,3.83645 -5.5102,4.78546 -11.53806,7.83391 -16.52485,9.70324 -0.24158,-4.10677 -0.89153,-8.13301 -1.77154,-12.02696 -4.13553,-18.48621 -14.2299,-34.24033 -20.53959,-42.67243 5.677,-11.9982 15.44351,-21.72445 24.19196,-28.56331 z m -37.66262,205.41315 c -9.91606,-8.00072 -24.96846,-17.69821 -42.33882,-20.94221 9.95057,-5.4872 22.16159,-15.13867 28.01689,-31.10561 0.0115,0 0.0345,0 0.0517,0 0.56943,-0.0805 1.04682,-0.29909 1.63926,-0.35661 22.71951,-2.61706 44.74881,13.16582 54.4118,21.16653 -0.79376,1.02382 -1.77156,2.21444 -2.76661,3.43382 -7.78215,9.34663 -21.78197,23.21417 -39.01429,27.80408 z m -7.13795,-161.71691 c 2.81261,-2.27196 5.46418,-4.26782 7.59234,-5.72877 2.41574,3.21524 5.56772,7.89143 8.62191,13.34986 3.72715,6.64906 7.19547,14.56925 9.14532,23.11064 1.38043,6.02211 1.92109,12.29729 1.13885,18.61849 -0.069,0.59819 -0.0287,1.19062 -0.12078,1.78881 -0.16106,1.00081 -0.52342,1.80605 -0.74774,2.73209 -4.49214,18.88883 -20.40729,27.59127 -29.63889,31.04808 -0.23008,-2.97366 -0.58668,-5.91857 -1.17911,-8.75419 -3.68115,-17.91679 -13.68924,-33.3488 -20.97098,-42.72419 5.32615,-14.41395 16.89297,-25.95201 26.15908,-33.44082 z m -44.71431,43.19008 c 1.23663,-1.05833 2.4445,-2.03038 3.49133,-2.84138 8.00647,9.68024 23.68581,31.80732 21.14928,54.42904 -0.069,0.59819 -0.27608,1.08134 -0.36237,1.67377 -0.59243,3.78467 -1.67951,7.18972 -3.11171,10.24391 -4.79122,10.32444 -13.2981,16.8067 -20.23474,20.51084 -2.68608,1.40343 -5.06732,2.40424 -6.91363,3.10595 -0.18406,-1.97285 -0.43139,-3.95146 -0.788,-5.8668 -3.22675,-17.35311 -12.95875,-32.40551 -20.97672,-42.32157 4.60717,-17.2093 18.39418,-31.15161 27.74656,-38.93376 z m -45.254967,43.21308 c 0.06902,0.0806 0.155298,0.18406 0.23007,0.27034 8.437857,9.16257 24.531327,29.64464 23.271687,51.71996 -0.0115,0.27034 -0.10929,0.51766 -0.12079,0.788 -0.12078,1.54147 -0.43139,2.9449 -0.71322,4.3771 -3.7214,19.15916 -20.677633,28.43102 -27.677544,31.43345 -0.724724,-0.40262 -1.622001,-0.97206 -2.536533,-1.56449 -2.55954,-17.3531 -12.222522,-32.37674 -20.976725,-42.8047 3.410803,-20.03345 19.872385,-36.73659 28.523055,-44.21966 z m -48.7578,133.03857 c -1.069831,-0.51191 -2.42725,-1.27114 -3.8882,-2.16267 -8.506876,-5.07881 -21.989038,-16.13373 -21.989038,-35.23537 0.0057,-21.70146 17.128788,-41.10219 25.877238,-49.62057 1.052574,1.02957 2.243192,2.24319 3.491327,3.5661 l 0,0 c 0.644199,0.67296 1.340163,1.48971 2.013121,2.24319 0.598186,0.64995 1.179114,1.27689 1.794554,2.00737 0.546419,0.6442 1.104341,1.34591 1.668015,2.02463 0.811001,1.00081 1.627753,2.00162 2.438753,3.08294 0.540667,0.73048 1.06983,1.48396 1.604746,2.21444 0.816751,1.16186 1.627752,2.32371 2.409994,3.5431 0.529162,0.811 1.029567,1.645 1.529971,2.48477 0.753483,1.27113 1.472455,2.54227 2.162669,3.86518 0.460141,0.89153 0.920283,1.78881 1.351666,2.68033 0.649951,1.37467 1.23088,2.80687 1.78305,4.23906 0.350859,0.92028 0.718973,1.80605 1.03532,2.7551 0.529163,1.59324 0.926036,3.21525 1.305653,4.86601 0.189809,0.81099 0.442887,1.61624 0.580929,2.46175 0.442887,2.48477 0.718972,5.0213 0.718972,7.59234 0,2.97368 -0.362361,5.72877 -0.949043,8.29407 -3.830682,16.93322 -18.606992,25.96351 -24.939697,29.09823 z m 45.950933,34.43012 c -19.107398,0 -30.16231,-13.51666 -35.252632,-22.00054 8.150266,-4.64743 20.482072,-13.80426 26.935565,-28.83364 2.588298,-0.56943 5.331895,-0.94905 8.305563,-0.94905 2.571044,0 5.107577,0.29909 7.598096,0.73048 0.834011,0.13229 1.627754,0.40838 2.450252,0.59818 1.65076,0.37962 3.29578,0.788 4.90627,1.2999 0.90303,0.32786 1.78305,0.67296 2.66882,1.02957 1.46671,0.56943 2.92766,1.16186 4.33109,1.80605 0.88002,0.43139 1.73129,0.86278 2.58255,1.29991 1.36316,0.73048 2.70909,1.46095 4.01473,2.24894 0.78225,0.48315 1.56449,0.94329 2.32947,1.4552 1.2769,0.81675 2.51929,1.67952 3.71565,2.51928 0.69596,0.51191 1.39769,1.0008 2.05914,1.48395 1.15035,0.89153 2.22018,1.76005 3.28426,2.62282 0.61545,0.4889 1.27114,1.00081 1.85207,1.51847 0.85127,0.73048 1.59325,1.40343 2.35823,2.10514 0.6557,0.59819 1.36317,1.19062 1.9556,1.76005 0.006,0 0.006,0 0.006,0 1.2999,1.24238 2.48477,2.40424 3.49132,3.43381 -8.48387,8.73695 -27.87886,25.87148 -49.591803,25.87148 z M 184.3049,390.12208 c -7.46005,8.67368 -24.1172,25.12951 -44.2254,28.51156 -10.1979,-8.5644 -24.80742,-17.99731 -41.688873,-20.80992 9.202843,-4.91202 22.253623,-14.35069 28.741623,-30.39815 1.43794,-0.29908 2.85863,-0.59817 4.41162,-0.73047 0.27608,0 0.49465,-0.11503 0.77073,-0.11503 l 2.39849,-0.0805 c 2.77811,0 5.52171,0.29909 8.21928,0.78224 12.15926,2.16268 23.28319,8.65068 31.58876,14.78207 3.82493,2.83562 7.07468,5.56771 9.50193,7.8109 0.0805,0.0575 0.20132,0.17256 0.28184,0.24733 z m 52.9796,-63.82745 c -9.37539,-7.27024 -24.81891,-17.29558 -42.71269,-20.99973 9.29488,-5.37792 19.44676,-13.97106 25.22729,-27.43022 0.58093,-1.35167 1.05258,-2.80686 1.54148,-4.23905 6.44774,-0.81676 12.8207,-0.21857 18.95785,1.21362 8.44361,1.97286 16.26602,5.42967 22.83454,9.13382 5.44694,3.05419 10.09438,6.18891 13.30961,8.59315 -1.39192,2.03038 -3.29576,4.56691 -5.42967,7.24724 -7.4543,9.31787 -19.1074,21.09751 -33.72841,26.48117 z m 48.53923,-46.75618 c -8.47237,-6.29819 -24.26674,-16.37531 -42.69542,-20.53384 8.30556,-5.10758 16.72615,-12.67691 22.2076,-23.86412 1.2769,-2.56528 2.29496,-5.42967 3.22099,-8.40334 1.67377,-0.16105 3.26702,-0.51191 4.99829,-0.51191 2.07639,0 4.1643,0.18981 6.24069,0.40838 13.40738,1.4552 26.03828,7.16096 35.02831,12.32605 3.00817,1.70253 5.65974,3.3763 7.73038,4.75672 -1.90384,3.11172 -4.67619,7.21273 -8.09275,11.56682 -6.85612,8.74845 -16.59387,18.58399 -28.63809,24.25524 z m 48.72904,-47.02076 c -6.78709,-4.91777 -22.92658,-15.2192 -42.56313,-19.88964 6.43048,-4.29658 12.64815,-10.13464 17.48539,-17.9973 2.70334,-4.37711 4.98679,-9.3524 6.56853,-15.10417 0.0287,-0.0287 0.046,-0.0805 0.0575,-0.13229 1.32291,-0.0806 2.63431,-0.24157 3.99748,-0.24157 4.08376,0 8.12151,0.5119 12.08448,1.24238 9.99659,1.80605 19.30296,5.45843 26.64798,9.08205 3.91695,1.9441 7.3105,3.83644 9.8758,5.40092 -5.18236,9.45016 -16.95623,27.63728 -34.15405,37.63962 z"
     id="path3152"
     inkscape:connector-curvature="0" /></svg>