<?xml version="1.0" encoding="UTF-8" standalone="no"?>
<svg
   xmlns:dc="http://purl.org/dc/elements/1.1/"
   xmlns:cc="http://creativecommons.org/ns#"
   xmlns:rdf="http://www.w3.org/1999/02/22-rdf-syntax-ns#"
   xmlns:svg="http://www.w3.org/2000/svg"
   xmlns="http://www.w3.org/2000/svg"
   xmlns:sodipodi="http://sodipodi.sourceforge.net/DTD/sodipodi-0.dtd"
   xmlns:inkscape="http://www.inkscape.org/namespaces/inkscape"
   version="1.1"
   x="0px"
   y="0px"
   viewBox="0 0 360 500"
   enable-background="new 0 0 100 100"
   xml:space="preserve"
   id="svg3033"
   inkscape:version="0.48.4 r9939"
   width="100%"
   height="100%"
   sodipodi:docname="hops.svg"><metadata
     id="metadata3041"><rdf:RDF><cc:Work
         rdf:about=""><dc:format>image/svg+xml</dc:format><dc:type
           rdf:resource="http://purl.org/dc/dcmitype/StillImage" /></cc:Work></rdf:RDF></metadata><defs
     id="defs3039" /><sodipodi:namedview
     pagecolor="#ffffff"
     bordercolor="#666666"
     borderopacity="1"
     objecttolerance="10"
     gridtolerance="10"
     guidetolerance="10"
     inkscape:pageopacity="0"
     inkscape:pageshadow="2"
     inkscape:window-width="1152"
     inkscape:window-height="837"
     id="namedview3037"
     showgrid="false"
     inkscape:zoom="0.834386"
     inkscape:cx="4.0179072"
     inkscape:cy="236.58547"
     inkscape:window-x="1280"
     inkscape:window-y="0"
     inkscape:window-maximized="1"
     inkscape:current-layer="svg3033" /><path
     d="m 359.71406,279.07157 c 0,94.55196 -73.06602,171.98426 -165.80791,179.04491 v 27.77973 c 0,7.62717 -6.19016,13.81733 -13.81732,13.81733 -7.62717,0 -13.81733,-6.19016 -13.81733,-13.81733 V 458.11648 C 73.529609,451.05583 0.4635841,373.62353 0.4635841,279.07157 c 5.6720122,0 11.2611209,0.3178 16.7949599,0.83595 -7.682434,-44.3398 1.761709,-88.92831 24.65702,-125.62712 6.832668,2.22458 13.506436,4.89133 20.021305,7.91041 3.226346,-33.19612 15.530678,-64.623628 35.248002,-90.814369 8.366389,3.557961 16.421889,7.779154 24.145779,12.546131 11.51674,-32.532893 32.09074,-60.775507 58.75818,-81.6327604 26.66743,20.8641624 47.13089,49.1689534 58.64073,81.7087564 7.75842,-4.794612 15.85538,-9.04344 24.26322,-12.622127 19.71732,26.190741 32.02856,57.611339 35.25491,90.814369 6.50796,-3.02599 13.18173,-5.68583 20.01439,-7.91041 22.8884,36.69881 32.33945,81.28732 24.65011,125.62712 5.54075,-0.51124 11.13677,-0.83595 16.80187,-0.83595 z M 180.08883,431.06216 c 73.28018,0 134.6222,-52.13277 148.86786,-121.26085 -22.38406,4.58735 -43.40022,14.20421 -61.91543,28.4775 l -24.32541,18.74321 -16.09027,-26.14929 c -11.86908,-19.2959 -27.78664,-35.63489 -46.53675,-47.89085 -18.75012,12.24906 -34.67458,28.59495 -46.54367,47.89085 l -16.09027,26.1562 -24.325404,-18.75012 C 74.621178,324.01243 53.598113,314.38866 31.214043,309.80131 45.466617,378.9363 106.80173,431.06216 180.08883,431.06216 z m 24.84355,-167.41072 c 4.02084,-11.04005 9.05725,-21.40995 14.88126,-31.12353 -4.44918,-30.99917 -18.14906,-59.68394 -39.72481,-82.4618 -21.57576,22.77786 -35.27564,51.45572 -39.72482,82.46871 5.83092,9.70667 10.86733,20.07657 14.88126,31.11662 0.30398,0.84285 0.51815,1.69953 0.80832,2.54239 7.58571,-5.65129 15.57903,-10.78443 24.03524,-15.19215 8.4562,4.40772 16.44952,9.54086 24.03523,15.19215 0.29017,-0.84286 0.50434,-1.69954 0.80832,-2.54239 z M 54.655139,189.27968 c -13.12646,30.26685 -15.938286,63.69787 -8.131497,95.81625 23.365102,6.19707 44.878678,16.94004 63.490618,31.28933 6.68758,-10.86733 14.52201,-20.93325 23.28219,-30.11486 -1.14684,-4.42154 -2.43185,-8.82236 -4.02084,-13.17482 -13.43735,-36.91989 -40.056428,-66.54424 -74.620471,-83.8159 z m 52.167321,-81.92983 c -11.786183,21.74156 -17.789811,45.7768 -18.024706,70.21274 10.742976,7.43372 20.719076,16.04191 29.693436,25.7624 6.33524,-21.36849 16.53243,-41.03745 29.79015,-58.28148 -11.27494,-14.92962 -25.25116,-27.74519 -41.45888,-37.69366 z m 73.26637,-67.815437 c -16.69133,17.610182 -28.59496,38.771416 -35.22037,61.797987 7.97951,6.9363 15.33723,14.62564 22.05936,22.92986 4.21429,-4.00703 8.57365,-7.84134 13.16101,-11.43384 4.58735,3.5925 8.94671,7.43372 13.15409,11.44074 6.72213,-8.2973 14.07985,-15.98664 22.05936,-22.92985 -6.62541,-23.019663 -18.52212,-44.194715 -35.21345,-61.804897 z m 73.26637,67.815437 c -16.20773,9.94156 -30.17014,22.75713 -41.45198,37.68675 13.2439,17.23021 23.47563,36.89226 29.80397,58.26076 8.97435,-9.70667 18.93664,-18.30796 29.67271,-25.73477 -0.22799,-24.43594 -6.23162,-48.47118 -18.0247,-70.21274 z m 52.16731,81.92983 c -34.56404,17.27166 -61.18312,46.89601 -74.62738,83.82281 -1.58208,4.35246 -2.874,8.75327 -4.01393,13.17482 8.76709,9.18161 16.59461,19.24753 23.28219,30.11486 18.61194,-14.34929 40.13243,-25.09226 63.49062,-31.28933 7.80678,-32.12529 5.00187,-65.55631 -8.1315,-95.82316 z"
     id="path3035"
     inkscape:connector-curvature="0" /></svg>