<?xml version="1.0" encoding="UTF-8" standalone="no"?>
<!-- Created with Inkscape (http://www.inkscape.org/) -->

<svg
   xmlns:dc="http://purl.org/dc/elements/1.1/"
   xmlns:cc="http://creativecommons.org/ns#"
   xmlns:rdf="http://www.w3.org/1999/02/22-rdf-syntax-ns#"
   xmlns:svg="http://www.w3.org/2000/svg"
   xmlns="http://www.w3.org/2000/svg"
   xmlns:sodipodi="http://sodipodi.sourceforge.net/DTD/sodipodi-0.dtd"
   xmlns:inkscape="http://www.inkscape.org/namespaces/inkscape"
   width="500"
   height="475"
   id="svg2"
   version="1.1"
   inkscape:version="0.48.4 r9939"
   sodipodi:docname="misc.svg">
  <defs
     id="defs4" />
  <sodipodi:namedview
     id="base"
     pagecolor="#ffffff"
     bordercolor="#666666"
     borderopacity="1.0"
     inkscape:pageopacity="0.0"
     inkscape:pageshadow="2"
     inkscape:zoom="0.98994949"
     inkscape:cx="304.37128"
     inkscape:cy="222.38348"
     inkscape:document-units="px"
     inkscape:current-layer="layer1"
     showgrid="false"
     inkscape:window-width="1152"
     inkscape:window-height="837"
     inkscape:window-x="1280"
     inkscape:window-y="0"
     inkscape:window-maximized="1" />
  <metadata
     id="metadata7">
    <rdf:RDF>
      <cc:Work
         rdf:about="">
        <dc:format>image/svg+xml</dc:format>
        <dc:type
           rdf:resource="http://purl.org/dc/dcmitype/StillImage" />
        <dc:title></dc:title>
      </cc:Work>
    </rdf:RDF>
  </metadata>
  <g
     inkscape:label="Calque 1"
     inkscape:groupmode="layer"
     id="layer1"
     transform="translate(0,-577.36218)">
    <path
       style="font-size:medium;font-style:normal;font-variant:normal;font-weight:normal;font-stretch:normal;text-indent:0;text-align:start;text-decoration:none;line-height:normal;letter-spacing:normal;word-spacing:normal;text-transform:none;direction:ltr;block-progression:tb;writing-mode:lr-tb;text-anchor:start;baseline-shift:baseline;color:#000000;fill:#000000;fill-opacity:1;stroke:none;stroke-width:40;marker:none;visibility:visible;display:inline;overflow:visible;enable-background:accumulate;font-family:Sans;-inkscape-font-specification:Sans"
       d="M 250.64172,576.83833 233.91141,616.9511 180.95113,743.71319 44.139435,755.50434 0.82905699,759.2444 33.804329,787.56602 l 104.207571,89.5043 -31.06242,133.78538 -9.84976,42.3397 37.14357,-22.6116 117.34058,-71.43217 117.59753,70.88967 37.25777,22.4403 -10.02105,-42.3111 -31.69052,-133.67118 103.75076,-89.96111 32.86108,-28.46436 -43.33893,-3.54021 -136.92589,-11.16305 -53.47419,-126.50514 -16.95871,-40.02712 z m 0.2284,94.30071 40.85508,96.64181 4.3396,10.19236 11.02031,0.9136 104.60727,8.53646 -79.28341,68.71989 -8.3366,7.25171 2.54095,10.76335 24.21042,102.12342 -89.87546,-54.13084 -9.47861,-5.71 -9.45005,5.73855 -89.67561,54.58764 23.75361,-102.20907 2.5124,-10.76335 -8.3937,-7.22316 -79.626004,-68.40584 104.550164,-8.99326 11.02031,-0.94215 4.25395,-10.22091 40.45538,-96.87021 z"
       id="path2987"
       inkscape:connector-curvature="0" />
  </g>
</svg>
