<?xml version="1.0" encoding="UTF-8" standalone="no"?>
<svg
   xmlns:dc="http://purl.org/dc/elements/1.1/"
   xmlns:cc="http://creativecommons.org/ns#"
   xmlns:rdf="http://www.w3.org/1999/02/22-rdf-syntax-ns#"
   xmlns:svg="http://www.w3.org/2000/svg"
   xmlns="http://www.w3.org/2000/svg"
   xmlns:sodipodi="http://sodipodi.sourceforge.net/DTD/sodipodi-0.dtd"
   xmlns:inkscape="http://www.inkscape.org/namespaces/inkscape"
   version="1.1"
   viewBox="0 0 500 400"
   xml:space="preserve"
   x="0px"
   y="0px"
   id="svg3208"
   inkscape:version="0.48.4 r9939"
   width="100%"
   height="100%"
   sodipodi:docname="yeast.svg"><metadata
     id="metadata3216"><rdf:RDF><cc:Work
         rdf:about=""><dc:format>image/svg+xml</dc:format><dc:type
           rdf:resource="http://purl.org/dc/dcmitype/StillImage" /></cc:Work></rdf:RDF></metadata><defs
     id="defs3214" /><sodipodi:namedview
     pagecolor="#ffffff"
     bordercolor="#666666"
     borderopacity="1"
     objecttolerance="10"
     gridtolerance="10"
     guidetolerance="10"
     inkscape:pageopacity="0"
     inkscape:pageshadow="2"
     inkscape:window-width="1152"
     inkscape:window-height="837"
     id="namedview3212"
     showgrid="false"
     inkscape:zoom="1.18"
     inkscape:cx="297.69486"
     inkscape:cy="255.76873"
     inkscape:window-x="1280"
     inkscape:window-y="0"
     inkscape:window-maximized="1"
     inkscape:current-layer="svg3208" /><path
     d="M 87.373819,2.77796 C 79.740865,2.6195 71.886311,4.74097 64.959506,9.20687 46.488122,21.11569 41.235074,45.46832 53.144209,63.93949 l 38.747223,60.11901 c 11.908838,18.4714 36.261048,23.72412 54.732628,11.8153 18.47158,-11.90893 23.72433,-36.43498 11.81529,-54.90638 L 119.86588,21.02217 C 112.42283,9.47771 100.09553,3.04184 87.373819,2.77796 z M 406.21307,57.51058 c -7.01339,0.0984 -14.09851,2.07421 -20.50301,6.08141 l -60.46652,37.70469 c -18.63118,11.65717 -24.16758,36.10127 -12.51031,54.73263 11.65707,18.6313 35.92768,24.34134 54.55887,12.68407 l 60.46652,-37.87846 C 446.38989,119.17776 452.09986,94.73366 440.44268,76.1023 432.79272,63.87544 419.60224,57.32304 406.21307,57.51058 z m -205.03014,63.94161 c -16.7304,0.0578 -33.02057,9.19197 -41.5273,25.02063 -12.37328,23.02348 -3.73664,51.39454 19.28674,63.76785 l 59.25024,31.79705 c 23.02347,12.37331 51.39456,3.9105 63.76785,-19.11298 12.37319,-23.0236 3.91049,-51.56835 -19.11298,-63.94161 l -59.25024,-31.79705 c -7.1949,-3.86668 -14.80951,-5.7603 -22.41431,-5.73389 z M 90.675152,168.71338 c -10.774217,-0.23909 -21.497335,3.8713 -29.538242,12.33656 l -49.172485,51.7788 c -15.1359181,15.9348 -14.5447841,40.98657 1.390035,56.12266 15.934621,15.13603 40.986742,14.54465 56.122659,-1.39004 l 49.172481,-51.7788 c 15.13602,-15.93475 14.54479,-40.98657 -1.39003,-56.12266 -7.46934,-7.09502 -17.07766,-10.73552 -26.584418,-10.94652 z M 387.79511,185.7413 c -18.53036,1.38726 -34.00471,15.74704 -36.31466,34.92463 -2.62834,21.81993 12.93102,41.50544 34.75087,44.13361 l 70.71803,8.51396 c 21.81984,2.62834 41.50517,-12.75718 44.13361,-34.57712 2.62843,-21.81993 -12.75728,-41.50544 -34.57712,-44.1336 l -70.89178,-8.68772 c -1.36372,-0.16403 -2.65286,-0.1479 -3.99635,-0.17348 -1.25943,-0.0222 -2.58724,-0.0923 -3.8226,0 z m -82.53332,65.85291 c -4.5306,0.0928 -9.07082,1.04074 -13.55284,2.78007 -20.48877,7.951 -30.53935,30.76875 -22.58807,51.25753 l 25.71565,66.54792 c 7.95118,20.48879 30.94223,30.53924 51.43129,22.58807 20.48886,-7.95111 30.53935,-30.7687 22.58807,-51.25753 l -25.8894,-66.54793 c -6.21186,-16.00686 -21.52368,-25.69841 -37.7047,-25.36813 z"
     style="color:#000000;fill:#000000;fill-opacity:1;fill-rule:nonzero;stroke:none;visibility:visible;display:inline;overflow:visible;enable-background:accumulate"
     visibility="visible"
     display="inline"
     overflow="visible"
     id="path3210"
     inkscape:connector-curvature="0" /></svg>